<svg xmlns="http://www.w3.org/2000/svg" width="1081" height="804" viewBox="0 0 1081 804">
<g>
<path d="M 334.00 617.34 C318.76,619.85 314.39,619.86 297.83,617.44 C205.11,603.91 131.50,569.67 79.48,515.86 C29.99,464.68 3.67,401.05 1.35,327.00 C-1.09,249.25 24.68,172.88 74.04,111.57 C85.11,97.82 108.42,74.62 121.00,64.83 C156.73,37.04 195.74,19.00 239.67,9.96 C265.93,4.56 266.84,4.53 372.50,4.88 C464.90,5.19 473.61,4.94 478.57,9.13 C479.42,9.84 480.15,10.68 481.17,11.67 C487.06,17.41 490.31,25.83 490.81,36.61 C491.50,51.62 486.94,62.32 477.76,67.22 C474.13,69.16 472.10,69.48 464.00,69.39 C458.77,69.33 420.08,68.70 378.00,68.00 C306.77,66.80 300.74,66.83 290.50,68.43 C253.10,74.28 223.52,83.27 194.16,97.71 C122.22,133.09 77.07,195.81 67.49,273.69 C65.38,290.85 65.86,323.43 68.46,340.00 C82.93,432.30 144.77,507.73 228.65,535.40 C253.31,543.53 273.10,546.93 300.00,547.65 C318.06,548.13 319.94,548.01 325.49,546.06 C334.45,542.89 343.74,536.96 350.84,529.85 C361.22,519.45 360.94,519.95 398.26,447.00 C421.64,401.30 454.85,336.42 494.49,259.00 C516.87,215.27 553.20,144.29 575.23,101.26 L 615.27 23.02 L 623.44 15.17 C628.41,10.40 633.93,6.19 637.55,4.42 C642.77,1.87 644.60,1.52 652.52,1.51 C660.73,1.50 662.15,1.80 668.28,4.82 C672.71,7.00 677.78,10.78 683.01,15.82 L 690.99 23.50 L 750.99 146.38 C784.00,213.96 811.00,269.60 811.00,270.01 C811.00,270.42 807.29,271.73 802.75,272.93 C798.21,274.13 792.92,275.57 791.00,276.12 C789.08,276.68 785.92,277.50 784.00,277.95 C779.60,278.98 760.66,283.72 756.00,284.96 C744.47,288.04 739.12,289.17 737.60,288.85 C735.87,288.50 732.19,281.13 680.28,174.01 C656.27,124.46 654.68,121.60 649.03,117.70 C645.33,115.15 641.54,115.59 637.65,119.00 C633.54,122.61 628.24,132.73 571.50,245.33 C540.84,306.16 529.19,328.37 527.63,328.98 C526.46,329.43 517.67,330.51 508.10,331.38 C498.54,332.25 490.45,333.22 490.12,333.54 C489.80,333.87 490.37,335.56 491.40,337.31 C492.42,339.07 496.81,346.95 501.15,354.83 L 509.05 369.16 L 454.96 476.33 C403.37,578.52 400.61,583.74 395.41,588.73 C380.77,602.76 357.92,613.40 334.00,617.34 ZM 953.79 621.42 C944.62,623.30 928.15,623.34 919.00,621.51 C911.35,619.97 896.67,615.23 894.58,613.62 C893.78,613.01 873.92,572.90 850.44,524.50 C826.97,476.10 802.20,425.07 795.38,411.09 C788.57,397.12 783.00,385.36 783.00,384.96 C783.00,384.56 785.59,383.19 788.75,381.92 C791.91,380.66 803.72,375.62 815.00,370.73 C850.28,355.45 852.12,354.71 852.95,355.62 C853.91,356.65 978.00,610.58 978.00,611.50 C978.00,612.95 960.90,619.96 953.79,621.42 ZM 514.48 800.65 C509.40,802.14 503.10,802.45 472.75,802.76 L 437.00 803.12 L 437.00 660.81 L 472.25 661.27 C500.83,661.65 508.73,662.05 514.00,663.41 C545.64,671.56 565.72,701.12 563.66,736.50 C561.77,768.99 544.14,791.99 514.48,800.65 ZM 799.58 789.99 L 793.74 803.00 L 779.37 803.00 C771.47,803.00 765.00,802.75 765.00,802.45 C765.00,801.93 822.88,672.49 826.58,664.75 L 828.37 661.00 L 842.94 661.01 L 857.50 661.01 L 873.95 697.76 C882.99,717.97 896.64,748.45 904.28,765.50 C911.92,782.55 918.78,797.96 919.53,799.75 L 920.90 803.00 L 906.20 802.99 L 891.50 802.98 L 885.92 790.24 L 880.33 777.50 L 842.88 777.24 L 805.43 776.98 ZM 251.24 755.99 L 250.98 803.00 L 224.00 803.00 L 224.00 661.00 L 245.50 661.02 L 314.50 748.50 L 314.76 704.75 L 315.02 661.00 L 342.00 661.00 L 342.00 803.00 L 333.25 802.97 L 324.50 802.95 L 288.00 755.96 L 251.50 708.98 ZM 464.00 686.83 L 464.00 777.00 L 482.29 777.00 C507.39,777.00 515.11,774.86 524.53,765.31 C532.72,757.00 537.00,745.57 537.00,732.00 C537.00,713.00 528.25,697.92 513.00,690.61 L 506.50 687.50 ZM 124.00 661.00 L 124.00 803.00 L 97.00 803.00 L 97.00 661.00 ZM 681.00 661.00 L 681.00 803.00 L 654.00 803.00 L 654.00 661.00 ZM 885.31 640.63 C884.01,644.01 876.19,640.24 869.88,633.19 C866.53,629.43 860.13,617.31 842.55,581.39 C829.93,555.60 810.41,515.83 799.18,493.00 C787.95,470.17 772.79,439.27 765.49,424.32 L 752.23 397.15 L 757.19 395.02 C759.91,393.84 762.59,393.03 763.14,393.21 C763.68,393.39 789.55,445.28 820.63,508.52 C851.70,571.76 878.32,624.75 879.79,626.29 C881.25,627.82 883.51,629.34 884.82,629.67 C887.01,630.22 887.14,630.60 886.51,634.76 C886.14,637.23 885.60,639.87 885.31,640.63 ZM 714.38 294.97 C713.90,295.42 711.14,296.11 708.25,296.49 L 703.01 297.19 L 684.92 260.34 C638.57,165.91 629.00,146.24 629.00,145.36 C629.00,143.55 636.97,136.57 637.91,137.55 C640.22,139.95 715.16,294.23 714.38,294.97 ZM 817.17 750.13 C816.98,750.61 828.45,751.00 842.90,751.00 L 868.97 751.00 L 867.00 746.75 C865.91,744.41 860.26,731.47 854.43,718.00 C848.61,704.53 843.51,693.16 843.11,692.73 C842.58,692.19 821.38,739.09 817.17,750.13 Z" fill="rgb(24,87,135)"/>
<path d="M 787.57 441.57 C773.11,412.44 763.47,393.32 763.14,393.21 C762.59,393.03 759.91,393.84 757.19,395.02 L 752.23 397.15 L 752.23 397.16 L 728.11 406.76 C714.85,412.05 704.00,416.84 704.00,417.41 C704.00,418.46 705.43,421.09 730.72,466.33 C738.66,480.53 744.93,492.74 744.66,493.44 C744.21,494.62 702.20,519.13 700.32,519.32 C699.87,519.36 696.31,513.79 692.40,506.95 C688.50,500.10 680.38,485.95 674.35,475.50 C638.08,412.58 626.71,392.61 626.32,391.12 C625.96,389.73 632.31,387.44 665.19,377.15 C686.81,370.38 712.83,362.21 723.00,359.00 C733.17,355.78 748.92,350.82 758.00,347.97 C862.61,315.13 962.95,281.21 1038.00,253.33 C1069.92,241.47 1076.74,239.00 1077.60,239.00 C1080.03,239.00 1028.52,267.97 994.50,285.74 C953.17,307.32 914.55,326.13 868.69,347.04 C860.54,350.76 853.64,354.02 853.37,354.30 C853.13,354.54 872.99,395.77 899.88,450.97 C874.83,399.78 853.35,356.05 852.95,355.62 C852.12,354.71 850.28,355.45 815.00,370.73 C803.72,375.62 791.91,380.66 788.75,381.92 C785.59,383.19 783.00,384.56 783.00,384.96 C783.00,385.36 788.57,397.12 795.38,411.09 C798.99,418.48 807.61,436.24 818.41,458.48 C794.63,409.54 783.58,386.93 783.08,386.12 C782.38,384.99 780.52,385.44 773.11,388.51 C768.10,390.59 764.00,392.51 764.00,392.78 C764.00,393.37 773.74,413.43 787.57,441.57 ZM 818.95 505.10 C848.25,564.23 878.57,624.87 879.78,626.28 C878.22,624.55 851.64,571.64 820.63,508.52 C820.06,507.38 819.50,506.24 818.95,505.10 ZM 895.71 614.27 L 893.64 613.43 L 870.85 566.47 C868.40,561.43 866.02,556.51 863.68,551.71 C880.95,587.07 893.93,613.13 894.58,613.62 C894.81,613.80 895.20,614.02 895.71,614.27 ZM 952.53 621.66 C946.16,622.89 938.95,623.24 931.53,622.78 C938.86,623.04 946.82,622.66 952.53,621.66 ZM 911.61 619.68 C907.69,618.69 903.86,617.48 900.22,616.07 C903.49,617.25 907.68,618.58 911.61,619.68 ZM 968.41 616.52 C973.64,614.38 977.99,612.24 978.00,611.50 C977.99,612.27 973.68,614.39 968.41,616.52 Z" fill="rgb(87,183,80)"/>
<path d="M 714.38 294.97 C714.78,294.59 695.26,253.80 675.83,213.85 L 676.88 215.99 C697.82,258.61 715.43,293.64 716.02,293.84 C716.61,294.04 721.57,293.18 727.04,291.94 C733.84,290.40 736.72,289.34 736.14,288.59 C735.68,287.99 728.43,273.33 720.03,256.00 C714.46,244.50 709.39,234.03 704.76,224.48 C733.51,283.65 736.20,288.57 737.60,288.85 C739.12,289.17 744.47,288.04 756.00,284.96 C760.66,283.72 779.60,278.98 784.00,277.95 C785.92,277.50 789.08,276.68 791.00,276.12 C792.92,275.57 798.21,274.13 802.75,272.93 C807.29,271.73 811.00,270.42 811.00,270.01 C811.00,269.66 792.03,230.53 766.46,178.07 C794.46,235.10 812.02,270.00 812.74,270.00 C813.50,270.00 821.63,267.95 830.81,265.44 C839.99,262.93 851.78,259.74 857.00,258.36 C862.22,256.97 879.55,252.25 895.50,247.86 C977.83,225.22 993.37,221.04 993.78,221.45 C994.03,221.69 982.36,227.71 967.86,234.82 C856.23,289.53 768.31,320.61 593.52,367.18 C585.28,369.37 578.20,371.38 577.77,371.64 C577.06,372.08 584.34,386.64 608.16,432.40 C613.57,442.79 618.00,451.84 618.00,452.51 C618.00,453.18 609.11,457.67 598.25,462.50 C587.39,467.33 576.18,472.31 573.33,473.59 L 568.17 475.90 L 563.27 467.20 C560.58,462.42 547.38,438.60 533.94,414.27 C520.50,389.95 509.27,370.04 509.00,370.04 C508.83,370.04 499.44,388.36 485.30,416.21 L 509.05 369.16 L 501.15 354.83 C496.81,346.95 492.42,339.07 491.40,337.31 C490.37,335.56 489.80,333.87 490.12,333.54 C490.45,333.22 498.54,332.25 508.10,331.38 C517.67,330.51 526.46,329.43 527.63,328.98 C528.94,328.47 537.28,312.89 557.85,272.34 C542.37,303.10 530.34,327.13 530.18,327.74 C529.96,328.58 530.76,328.83 532.68,328.52 C534.23,328.27 539.55,327.56 544.50,326.94 C580.25,322.48 650.98,309.64 687.86,300.92 C694.65,299.31 701.12,298.00 702.23,298.00 C703.50,298.00 703.88,297.76 703.49,297.12 L 708.25 296.49 C711.14,296.11 713.90,295.42 714.38,294.97 ZM 676.01 242.19 C657.03,203.73 634.60,157.98 631.75,151.68 L 628.67 144.86 L 630.07 143.45 C629.42,144.25 629.00,144.94 629.00,145.36 C629.00,146.18 637.32,163.34 676.01,242.19 ZM 676.35 10.01 C678.49,11.65 680.67,13.49 682.72,15.42 L 690.50 22.75 L 690.76 23.29 L 683.01 15.82 C680.74,13.64 678.51,11.70 676.35,10.01 ZM 660.58 133.99 C664.70,141.92 670.71,154.26 680.28,174.01 L 682.69 178.98 C671.08,155.10 664.54,141.76 660.58,133.99 ZM 631.66 127.68 C634.89,121.99 636.33,120.16 637.65,119.00 C637.86,118.82 638.07,118.64 638.28,118.47 C636.41,120.25 634.33,123.15 631.66,127.68 ZM 404.04 575.93 C398.95,585.21 397.29,587.11 395.10,589.14 C391.61,592.37 387.74,595.39 383.56,598.19 C387.92,595.26 391.90,592.09 395.41,588.73 C397.53,586.69 399.25,584.62 404.04,575.93 ZM 644.95 116.11 C646.32,116.24 647.68,116.77 649.03,117.70 C649.28,117.88 649.52,118.05 649.76,118.22 C648.19,117.14 646.47,116.37 644.95,116.11 ZM 601.18 186.51 C604.09,180.77 606.74,175.54 609.17,170.76 C606.69,175.65 604.01,180.94 601.18,186.51 Z" fill="rgb(241,123,38)"/>
<path d="M 0.00 402.00 L 0.00 0.00 L 540.50 0.00 L 1081.00 0.00 L 1081.00 402.00 L 1081.00 804.00 L 540.50 804.00 L 0.00 804.00 L 0.00 402.00 ZM 124.00 732.00 L 124.00 661.00 L 110.50 661.00 L 97.00 661.00 L 97.00 732.00 L 97.00 803.00 L 110.50 803.00 L 124.00 803.00 L 124.00 732.00 ZM 251.24 755.99 L 251.50 708.98 L 288.00 755.96 L 324.50 802.95 L 333.25 802.97 L 342.00 803.00 L 342.00 732.00 L 342.00 661.00 L 328.51 661.00 L 315.02 661.00 L 314.76 704.75 L 314.50 748.50 L 280.00 704.76 L 245.50 661.02 L 234.75 661.01 L 224.00 661.00 L 224.00 732.00 L 224.00 803.00 L 237.49 803.00 L 250.98 803.00 L 251.24 755.99 ZM 514.48 800.65 C544.14,791.99 561.77,768.99 563.66,736.50 C565.72,701.12 545.64,671.56 514.00,663.41 C508.73,662.05 500.83,661.65 472.25,661.27 L 437.00 660.81 L 437.00 731.96 L 437.00 803.12 L 472.75 802.76 C503.10,802.45 509.40,802.14 514.48,800.65 ZM 681.00 732.00 L 681.00 661.00 L 667.50 661.00 L 654.00 661.00 L 654.00 732.00 L 654.00 803.00 L 667.50 803.00 L 681.00 803.00 L 681.00 732.00 ZM 799.58 789.99 L 805.43 776.98 L 842.88 777.24 L 880.33 777.50 L 885.92 790.24 L 891.50 802.98 L 906.20 802.99 L 920.90 803.00 L 919.53 799.75 C918.78,797.96 911.92,782.55 904.28,765.50 C896.64,748.45 882.99,717.97 873.95,697.76 L 857.50 661.01 L 842.94 661.01 L 828.37 661.00 L 826.58 664.75 C822.88,672.49 765.00,801.93 765.00,802.45 C765.00,802.75 771.47,803.00 779.37,803.00 L 793.74 803.00 L 799.58 789.99 ZM 885.31 640.63 C885.60,639.87 886.14,637.23 886.51,634.76 C887.14,630.60 887.01,630.22 884.82,629.67 C883.51,629.34 881.25,627.82 879.79,626.29 C877.71,624.11 764.00,394.80 764.00,392.78 C764.00,392.51 768.10,390.59 773.11,388.51 C780.52,385.44 782.38,384.99 783.08,386.12 C783.86,387.38 810.33,441.77 870.85,566.47 L 893.64 613.43 L 899.22 615.68 C916.05,622.44 937.23,624.75 953.07,621.55 C960.70,620.01 978.00,613.04 978.00,611.50 C978.00,611.16 949.84,553.26 915.43,482.84 C881.02,412.42 853.09,354.58 853.37,354.30 C853.64,354.02 860.54,350.76 868.69,347.04 C914.55,326.13 953.17,307.32 994.50,285.74 C1028.52,267.97 1080.03,239.00 1077.60,239.00 C1076.74,239.00 1069.92,241.47 1038.00,253.33 C962.95,281.21 862.61,315.13 758.00,347.97 C748.92,350.82 733.17,355.78 723.00,359.00 C712.83,362.21 686.81,370.38 665.19,377.15 C632.31,387.44 625.96,389.73 626.32,391.12 C626.71,392.61 638.08,412.58 674.35,475.50 C680.38,485.95 688.50,500.10 692.40,506.95 C696.31,513.79 699.87,519.36 700.32,519.32 C702.20,519.13 744.21,494.62 744.66,493.44 C744.93,492.74 738.66,480.53 730.72,466.33 C705.43,421.09 704.00,418.46 704.00,417.41 C704.00,416.84 714.85,412.05 728.11,406.76 L 752.23 397.16 L 765.50 424.33 C772.79,439.27 787.95,470.17 799.18,493.00 C810.41,515.83 829.93,555.60 842.55,581.39 C860.13,617.31 866.53,629.43 869.88,633.19 C876.19,640.24 884.01,644.01 885.31,640.63 ZM 334.00 617.34 C357.60,613.46 379.94,603.15 395.10,589.14 C400.30,584.33 402.48,580.23 454.50,477.09 C484.20,418.21 508.73,370.04 509.00,370.04 C509.27,370.04 520.50,389.95 533.94,414.27 C547.38,438.60 560.58,462.42 563.27,467.20 L 568.17 475.90 L 573.33 473.59 C576.18,472.31 587.39,467.33 598.25,462.50 C609.11,457.67 618.00,453.18 618.00,452.51 C618.00,451.84 613.57,442.79 608.16,432.40 C584.34,386.64 577.06,372.08 577.77,371.64 C578.20,371.38 585.28,369.37 593.52,367.18 C768.31,320.61 856.23,289.53 967.86,234.82 C982.36,227.71 994.03,221.69 993.78,221.45 C993.37,221.04 977.83,225.22 895.50,247.86 C879.55,252.25 862.22,256.97 857.00,258.36 C851.78,259.74 839.99,262.93 830.81,265.44 C821.63,267.95 813.50,270.00 812.74,270.00 C811.89,270.00 787.84,221.90 750.93,146.37 L 690.50 22.75 L 682.72 15.42 C677.90,10.89 672.37,6.83 668.24,4.80 C662.16,1.80 660.71,1.50 652.52,1.51 C644.60,1.52 642.77,1.87 637.55,4.42 C633.93,6.19 628.41,10.40 623.44,15.17 L 615.27 23.02 L 575.23 101.26 C553.20,144.29 516.87,215.27 494.49,259.00 C454.85,336.42 421.64,401.30 398.26,447.00 C360.94,519.95 361.22,519.45 350.84,529.85 C343.74,536.96 334.45,542.89 325.49,546.06 C319.94,548.01 318.06,548.13 300.00,547.65 C273.10,546.93 253.31,543.53 228.65,535.40 C144.77,507.73 82.93,432.30 68.46,340.00 C65.86,323.43 65.38,290.85 67.49,273.69 C77.07,195.81 122.22,133.09 194.16,97.71 C223.52,83.27 253.10,74.28 290.50,68.43 C300.74,66.83 306.77,66.80 378.00,68.00 C420.08,68.70 458.77,69.33 464.00,69.39 C472.10,69.48 474.13,69.16 477.76,67.22 C486.94,62.32 491.50,51.62 490.81,36.61 C490.31,25.83 487.06,17.41 481.17,11.67 C474.15,4.84 480.59,5.24 372.50,4.88 C266.84,4.53 265.93,4.56 239.67,9.96 C195.74,19.00 156.73,37.04 121.00,64.83 C108.42,74.62 85.11,97.82 74.04,111.57 C24.68,172.88 -1.09,249.25 1.35,327.00 C3.67,401.05 29.99,464.68 79.48,515.86 C131.50,569.67 205.11,603.91 297.83,617.44 C314.39,619.86 318.76,619.85 334.00,617.34 ZM 464.00 731.91 L 464.00 686.83 L 485.25 687.16 L 506.50 687.50 L 513.00 690.61 C528.25,697.92 537.00,713.00 537.00,732.00 C537.00,745.57 532.72,757.00 524.53,765.31 C515.11,774.86 507.39,777.00 482.29,777.00 L 464.00 777.00 L 464.00 731.91 ZM 817.17 750.13 C821.38,739.09 842.58,692.19 843.11,692.73 C843.51,693.16 848.61,704.53 854.43,718.00 C860.26,731.47 865.91,744.41 867.00,746.75 L 868.97 751.00 L 842.90 751.00 C828.45,751.00 816.98,750.61 817.17,750.13 ZM 530.18 327.74 C530.58,326.18 609.61,169.49 623.73,142.25 C634.79,120.93 638.56,116.00 643.81,116.00 C646.59,116.00 650.43,118.12 652.79,120.95 C657.21,126.26 655.79,123.42 720.03,256.00 C728.43,273.33 735.68,287.99 736.14,288.59 C736.72,289.34 733.84,290.40 727.04,291.94 C721.57,293.18 716.61,294.04 716.02,293.84 C715.43,293.64 697.82,258.61 676.88,215.99 C655.95,173.37 638.41,138.06 637.89,137.53 C637.31,136.92 635.45,138.08 632.82,140.71 L 628.67 144.86 L 631.75 151.68 C636.75,162.74 702.10,295.38 703.22,296.75 C703.98,297.68 703.72,298.00 702.23,298.00 C701.12,298.00 694.65,299.31 687.86,300.92 C650.98,309.64 580.25,322.48 544.50,326.94 C539.55,327.56 534.23,328.27 532.68,328.52 C530.76,328.83 529.96,328.58 530.18,327.74 Z" fill="rgb(253,254,254)"/>
</g>
</svg>